<?xml version="1.0" encoding="UTF-8"?>
<!DOCTYPE svg PUBLIC "-//W3C//DTD SVG 1.1//EN" "http://www.w3.org/Graphics/SVG/1.1/DTD/svg11.dtd">
<!-- Creator: CorelDRAW 2021 (64 Bit) -->
<svg xmlns="http://www.w3.org/2000/svg" xml:space="preserve" width="108.13mm" height="21.298mm" version="1.1" style="shape-rendering:geometricPrecision; text-rendering:geometricPrecision; image-rendering:optimizeQuality; fill-rule:evenodd; clip-rule:evenodd"
viewBox="0 0 99.8 19.66"
 xmlns:xlink="http://www.w3.org/1999/xlink"
 xmlns:xodm="http://www.corel.com/coreldraw/odm/2003">
 <defs>
  <style type="text/css">
   <![CDATA[
    .fil0 {fill:#FEFEFE}
   ]]>
  </style>
 </defs>
 <g id="Camada_x0020_1">
  <metadata id="CorelCorpID_0Corel-Layer"/>
  <path class="fil0" d="M1.15 4.99c-0.62,1.06 -1.14,3.31 -1.14,4.33 -0.15,6.55 4.15,10.32 10.22,10.32 4.91,0.12 9.59,-3.58 9.94,-8.66 0,-0.04 -0.01,-0.08 -0.04,-0.08l-6.35 0c-0.08,0 -0.64,3.02 -3.37,3.07 -2.6,0.12 -4.16,-2.14 -3.78,-4.95 0.24,-1.67 1.39,-3.23 3.32,-3.29 2.76,-0.12 3.46,1.85 3.77,2.6 0.06,0.07 -0.03,0.14 0.15,0.14l6.12 0c0.15,0 0.13,-0.06 0.11,-0.18 -0.7,-5.1 -5.06,-8.52 -10.54,-8.28 -3.38,0.13 -6.75,2.03 -8.41,4.98l-0 0zm20.27 8.19l0 0c0.27,3.85 3.39,6.15 6.76,6.41 4.28,0.51 8.84,-1.98 8.84,-6.61 0,-0.61 -0.01,-0.95 -0.06,-1.54 -0.1,-1.1 -0.75,-2.42 -1.53,-3.2 -1.75,-1.64 -3.5,-2.02 -5.82,-1.97 0.17,-0.43 2.81,-4.63 3.44,-5.6 -0.02,-0.04 -0.07,-0.05 -0.13,-0.05l-6.05 0c-0.09,0.01 -0.11,0.06 -0.15,0.12 -1.72,3.17 -5.74,8.26 -5.29,12.44l0 0zm7.81 -3l0 0c1.34,0 2.42,1.07 2.42,2.4 0,1.33 -1.08,2.4 -2.42,2.4 -1.34,0 -2.42,-1.07 -2.42,-2.4 0,-1.32 1.08,-2.4 2.42,-2.4z"/>
  <path class="fil0" d="M41.17 0.74l0 18.17c0,0.06 0.03,0.12 0.08,0.12l6.36 0c2.85,0 4.97,-2.65 4.66,-5.4 -0.26,-2.34 -0.97,-3.53 -3.53,-4.65 0.01,-0.01 0.01,-0.01 0.03,-0.02 1.63,-0.55 2.42,-2.77 2.23,-4.44 -0.22,-1.92 -1.83,-3.85 -3.84,-3.89 -0.21,-0 -0.42,-0.01 -0.65,-0.01l-5.18 0c-0.1,-0 -0.15,0.02 -0.15,0.12zm47.41 0l0 0 0 18.17c0,0.06 0.02,0.12 0.1,0.13l0.55 0c0.07,-0.01 0.09,-0.02 0.1,-0.09 0.01,-0.04 0,-5.12 0,-5.82 0,-0.07 0.01,-0.13 0.01,-0.19 0.68,-0.76 2.19,-2.56 2.93,-3.38 1.89,2.64 5.11,7.09 6.66,9.37 0.02,0.04 0.09,0.1 0.15,0.1l0.61 -0.01c0.1,0 0.13,-0.1 0.07,-0.19 -1.85,-2.66 -5.59,-7.7 -7.02,-9.85 0.85,-1.03 6.07,-7.02 7.04,-8.16 0.05,-0.12 0.02,-0.19 -0.12,-0.19l-0.61 0c-0.03,0 -0.07,0.01 -0.09,0.02 -1.73,2.03 -8.13,9.55 -9.63,11.21 -0.04,-3.04 0.01,-7.79 0.01,-11.08 0,-0.11 -0.01,-0.15 -0.16,-0.15 -0.1,0 -0.43,-0.01 -0.5,0.01 -0.04,0.01 -0.09,0.05 -0.09,0.11l0 0zm-17.34 0.01l0 0 0 18.1c0,0.05 0,0.09 0.03,0.12l0.03 0.05c0.01,0.02 -0,0 0.02,0.02 0.04,0.02 0.5,0.01 0.57,0.01 0.1,0 0.11,-0.05 0.11,-0.15 -0.01,-2.73 0,-5.46 0,-8.19l0 -8.31c0,-0.02 -0,-0.04 0,-0.06 0,-0.03 0.01,-0.03 0.01,-0.06l0.01 0c1.63,2.25 9.99,13.88 12.01,16.69 0.04,0.04 0.03,0.09 0.12,0.09l0.26 0c0.08,0 0.11,-0.06 0.11,-0.14l0 -18.12c0,-0.11 -0.04,-0.15 -0.15,-0.15l-0.47 0c-0.06,0 -0.13,0.05 -0.14,0.12 -0.01,0.08 -0,1.71 -0,1.83l0 14.54c0,0.04 0.01,0.09 -0.01,0.12 -0.04,-0.01 -0.01,-0.02 -0.03,-0.05 -3.91,-5.49 -8.13,-10.98 -11.89,-16.48 -0.03,-0.05 -0.06,-0.08 -0.14,-0.08 -0.08,0 -0.29,-0.01 -0.36,0.01 -0.03,-0 -0.09,0.05 -0.09,0.12l0 -0zm-14.45 10.69l0 0c-0.61,1.71 -2.11,5.68 -2.76,7.36 -0.04,0.08 -0.11,0.24 0.03,0.24 0.09,0 0.57,0.01 0.61,-0.01 0.03,-0.02 0.04,-0.04 0.05,-0.08 0.27,-0.92 1.62,-4.29 2.07,-5.53 0.02,-0.02 0.01,-0.05 0.05,-0.05l8.59 -0.01c0.04,0 0.04,0.02 0.06,0.06 0.59,1.53 1.59,4.22 2.06,5.53 0.03,0.05 0.03,0.09 0.1,0.09l0.54 -0.01c0.16,0 -0,-0.32 -0.02,-0.39 -0.67,-1.83 -1.51,-3.89 -2.17,-5.77 -1.16,-2.96 -4.55,-12.11 -4.62,-12.19 -0.03,-0.03 -0.05,-0.05 -0.1,-0.05 -0.08,0 -0.29,-0.01 -0.36,0.01 -0.38,1.02 -3.14,8.22 -4.14,10.8l-0 0zm0.28 1.2l0 0 4.06 -10.64 4.07 10.62 -8.13 0.02zm-15.18 -3.17l0 0 5.76 0c5.07,0.52 5.31,8.33 -0.06,8.84l-5.7 0 0 -8.84zm0 -8.12l0 0 4.9 0c4.91,0.34 4.46,7.33 0.01,7.42l-4.91 0 0 -7.42z"/>
 </g>
</svg>
