<?xml version="1.0" encoding="UTF-8"?>
<!DOCTYPE svg PUBLIC "-//W3C//DTD SVG 1.1//EN" "http://www.w3.org/Graphics/SVG/1.1/DTD/svg11.dtd">
<!-- Creator: CorelDRAW 2021 (64 Bit) -->
<svg xmlns="http://www.w3.org/2000/svg" xml:space="preserve" width="434.893mm" height="434.921mm" version="1.1" style="shape-rendering:geometricPrecision; text-rendering:geometricPrecision; image-rendering:optimizeQuality; fill-rule:evenodd; clip-rule:evenodd"
viewBox="0 0 3053.69 3053.88"
 xmlns:xlink="http://www.w3.org/1999/xlink"
 xmlns:xodm="http://www.corel.com/coreldraw/odm/2003">
 <defs>
  <style type="text/css">
   <![CDATA[
    .fil0 {fill:#FF6100}
    .fil2 {fill:#FFD9C1}
    .fil1 {fill:white}
   ]]>
  </style>
 </defs>
 <g id="Camada_x0020_1">
  <metadata id="CorelCorpID_0Corel-Layer"/>
  <g id="_2429305917984">
   <path class="fil0" d="M338.09 1639.63l0.71 -9.33 3 0.02 222.91 0 -2.5 -0.01 0.74 9.32 -0.15 755.99 -223.47 0 -1.23 -755.98zm1190.35 1414.25l-5.13 0c-18,-0.18 -27.51,-2.61 -44.6,-2.53 -32.37,0.13 -122.75,2.01 -143.35,-0.3 -37.41,-4.2 -141.43,-5.73 -183.73,-6.99 -11.85,-0.35 -11.32,-1.99 -22.2,-2.57 -8.01,-0.43 -16.78,0.45 -24.79,0.02l-220.35 -17.42c-98.72,-5.46 -327.06,-43.85 -414.33,-61.21 -27.9,-5.55 -51.59,-12.69 -78.42,-18.17 -44.08,-9 -98.86,-30.82 -135.45,-55.27 -62.63,-41.86 -98.42,-88.27 -126.6,-158.23 -31.04,-77.06 -68.09,-303.97 -79.51,-398.51 -10.04,-83.21 -21.25,-174.7 -27.53,-257.3l-10.06 -158.36c-0.56,-10.72 -1.92,-9.07 -2.5,-19.79 -1.48,-27.6 0.43,-67.08 -3.51,-93.08l-3.97 -90.15c0.27,-65.43 -2.42,-122.64 -2.42,-188.29 0,-11.66 3.17,-257.19 6.38,-278.45 3.87,-25.58 2.05,-63.5 3.51,-90.61 0.59,-10.91 2.24,-10.34 2.57,-22.2 0.2,-7.2 -0.53,-15.09 0.05,-22.24l17.39 -217.9c8.3,-107.42 38.91,-313.31 59.05,-414.02 21.59,-107.96 44.73,-220.87 133.58,-292.43 9.42,-7.59 16.89,-12.81 26.89,-20.17 16.74,-12.32 40.1,-25.02 60.87,-33.25 147.74,-58.52 476.02,-99.47 640.95,-111.99l66.66 -5.16c8.49,-0.2 12.94,0.26 21.29,-1l87.72 -6.4c27.44,-1.47 64.79,0.45 90.98,-3.14l89.78 -4.33c64.05,0.26 120.86,-2.42 185.82,-2.42 287.46,0 515.03,10.85 782.23,40.07 88.7,9.7 241.83,33.86 325.39,53.56 74.1,17.47 143.96,31.16 206.15,76.21 61.6,44.62 93.94,90.55 121.38,163.45 11.21,29.78 30.81,116.81 37.12,151.11 114.57,622.73 120.82,1477.66 -2.91,2097.04 -15.7,78.6 -36.89,181.75 -91.68,242.69 -17.3,19.25 -15.4,19.92 -35.62,36.2 -5.29,4.26 -7.23,7.2 -13.03,11.74 -28.46,22.3 -57.42,37.71 -92.02,51.63 -104.19,41.91 -447.05,93.82 -568.2,100.54 -50.53,2.8 -124.21,12.21 -175.92,14.79l-44.51 2.55c-18.87,-0.04 -28.16,2.47 -44.58,2.48 -30.91,0.02 -29.66,1.95 -47.06,2.47 -15.27,0.46 -31.38,-1.26 -46.09,0.96 -14.41,2.18 -30.1,1.44 -45.63,1.43 -18.28,-0.01 -30.06,1.71 -44.57,2.49 -30.26,1.63 -65.76,-0.01 -96.61,-0.01 -32.4,0 -59.33,2.3 -88.91,2.48zm505.21 -1423.56l223.95 0 -0 358.54c0,91.39 -20.82,246.61 115.2,243.93 54.76,-1.08 89.16,-33.6 105.1,-74.34 18.26,-46.66 13.19,-112.88 13.19,-167.11 0,-30.37 -1.85,-339.43 0.76,-361.02l223.33 0 -0.05 765.3 -215.46 -0.05 -2.73 -79.82c-9.45,8.32 -11.78,14.72 -20.09,22.42 -7.71,7.15 -13.26,13.98 -21.14,20.88 -51.33,44.97 -123.56,61.1 -195.04,54.02 -100.5,-9.96 -165.47,-66.63 -198.19,-138.75 -40,-88.17 -29.59,-203.39 -29.59,-307.75 0,-53.54 -2.88,-306.12 0.76,-336.25zm-1049.76 -1.54l194.45 1.02 0.59 175.16 -195.05 1.56c-0.74,102.78 -0.23,205.94 -0.07,308.75 0.08,50.27 11.65,88.6 46.56,106.25 18.94,9.58 43.14,11.92 66.85,11.2 21.36,-0.64 55.64,-7.99 70.6,-7.35l0 168.69c-37.71,20.99 -182.91,17.87 -229.09,5.92 -71.66,-18.54 -117.81,-56.04 -146.43,-111.17 -36.46,-70.22 -32.49,-140.06 -32.49,-225.65 0,-85.82 0,-171.64 0,-257.47l-111.21 -0.75 -0.88 -174.62 112.09 -0.09 -0 -191.29 223.88 -39.57 0.2 229.41zm304.04 214.19l0 -176.09c1.64,-7.09 19.5,-10.93 30.11,-14.47 123.62,-41.23 314.92,-62.81 433.2,-10.48 163.5,72.33 171.98,212.96 171.98,384.09 0,123.2 0,246.4 0,369.6l-209.9 0 -2.57 -77.22c-18.12,14.35 -36.82,54.43 -106.94,80.45 -122.6,45.49 -331.81,1.17 -353.57,-186.48 -12.94,-111.58 36.4,-193.23 129.87,-245.2 86.63,-48.17 215.61,-57.94 327.64,-49.54 -2.55,-97.53 -75.2,-130.75 -172.19,-128.8 -66,1.33 -128.86,15.39 -190.16,34.56 -18.87,5.9 -39.53,14.96 -57.46,19.59zm1284.83 -509.4l0.03 194.58 -373.41 0.02 0.02 -128.74 373.35 -65.87zm-2144.91 -36.97c184.07,-28.42 212.31,230.49 45.05,253.57 -184.55,25.46 -211.38,-227.88 -45.05,-253.57z"/>
   <path class="fil1" d="M1465.67 2157.28c0,-77.65 95.78,-103.46 173.97,-103.46l68.92 2.47 0.43 63.84c0,75.13 -54.65,133.19 -128.79,133.19 -70.04,0 -114.53,-25.33 -114.53,-96.03zm-177.74 -314.31c17.93,-4.62 38.59,-13.69 57.46,-19.59 61.3,-19.16 124.16,-33.23 190.16,-34.56 96.99,-1.96 169.64,31.27 172.19,128.8 -112.03,-8.4 -241.01,1.37 -327.64,49.54 -93.47,51.97 -142.81,133.62 -129.87,245.2 21.76,187.65 230.98,231.97 353.57,186.48 70.12,-26.02 88.82,-66.1 106.94,-80.45l2.57 77.22 209.9 0c0,-123.2 0,-246.4 0,-369.6 0,-171.13 -8.48,-311.75 -171.98,-384.09 -118.28,-52.33 -309.59,-30.74 -433.2,10.48 -10.61,3.54 -28.47,7.38 -30.11,14.47l0 176.09z"/>
   <path class="fil1" d="M2033.64 1630.32c-3.64,30.14 -0.76,282.71 -0.76,336.25 0,104.36 -10.41,219.57 29.59,307.75 32.72,72.12 97.69,128.79 198.19,138.75 71.48,7.08 143.71,-9.04 195.04,-54.02 7.87,-6.9 13.43,-13.73 21.14,-20.88 8.31,-7.71 10.64,-14.1 20.09,-22.42l2.73 79.82 215.46 0.05 0.05 -765.3 -223.33 0c-2.61,21.59 -0.76,330.65 -0.76,361.02 0,54.24 5.07,120.46 -13.19,167.11 -15.95,40.74 -50.34,73.26 -105.1,74.34 -136.02,2.68 -115.2,-152.55 -115.2,-243.93l0 -358.54 -223.95 0z"/>
   <path class="fil1" d="M983.89 1806.52c3.15,-2.96 -3.85,-2.49 9.1,-3.62l183.49 0.2 0 -170.9 -173.4 0.03c-2.46,0.03 -10.55,0.32 -12.45,0.02 -10.84,-1.68 -3,0.05 -6.75,-3.47l-0.2 -229.41 -223.88 39.57 0 191.29 -112.09 0.09 0.88 174.62 111.21 0.75c0,85.82 0,171.64 0,257.47 0,85.59 -3.97,155.43 32.49,225.65 28.62,55.13 74.77,92.63 146.43,111.17 46.18,11.95 191.38,15.08 229.09,-5.92l0 -168.69c-14.96,-0.64 -49.24,6.7 -70.6,7.35 -23.71,0.72 -47.9,-1.62 -66.85,-11.2 -34.9,-17.65 -46.48,-55.98 -46.56,-106.25 -0.16,-102.81 -0.67,-205.97 0.07,-308.75z"/>
   <polygon class="fil1" points="339.32,2395.62 562.79,2395.62 562.95,1639.62 562.21,1630.31 564.71,1630.32 341.8,1630.32 338.79,1630.3 338.09,1639.63 "/>
   <polygon class="fil1" points="2199.41,1399.44 2199.38,1528.18 2572.79,1528.16 2572.76,1333.58 "/>
   <path class="fil1" d="M427.85 1296.6c-166.34,25.68 -139.51,279.02 45.05,253.57 167.27,-23.07 139.02,-281.98 -45.05,-253.57z"/>
   <path class="fil0" d="M1465.67 2157.28c0,70.7 44.48,96.03 114.53,96.03 74.14,0 128.79,-58.06 128.79,-133.19l-0.43 -63.84 -68.92 -2.47c-78.19,0 -173.97,25.81 -173.97,103.46z"/>
   <path class="fil2" d="M983.89 1806.52l195.05 -1.56 -0.59 -175.16 -194.45 -1.02c3.75,3.52 -4.1,1.79 6.75,3.47 1.9,0.29 9.98,0.01 12.45,-0.02l173.4 -0.03 0 170.9 -183.49 -0.2c-12.95,1.14 -5.96,0.67 -9.1,3.62z"/>
  </g>
 </g>
</svg>
