<?xml version="1.0" encoding="UTF-8"?>
<!DOCTYPE svg PUBLIC "-//W3C//DTD SVG 1.1//EN" "http://www.w3.org/Graphics/SVG/1.1/DTD/svg11.dtd">
<!-- Creator: CorelDRAW 2021 (64 Bit) -->
<svg xmlns="http://www.w3.org/2000/svg" xml:space="preserve" width="48.3474mm" height="47.4274mm" version="1.1" style="shape-rendering:geometricPrecision; text-rendering:geometricPrecision; image-rendering:optimizeQuality; fill-rule:evenodd; clip-rule:evenodd"
viewBox="0 0 20.05 19.67"
 xmlns:xlink="http://www.w3.org/1999/xlink"
 xmlns:xodm="http://www.corel.com/coreldraw/odm/2003">
 <defs>
  <style type="text/css">
   <![CDATA[
    .fil0 {fill:white}
   ]]>
  </style>
 </defs>
 <g id="Camada_x0020_1">
  <metadata id="CorelCorpID_0Corel-Layer"/>
  <path id="Fill-1" class="fil0" d="M13.79 6.96l-3.14 -5.61c-0.24,-0.43 -0.4,-0.89 -0.5,-1.36l-0.13 0.23c-0.78,1.39 -0.78,3.1 -0,4.49l2.51 4.49c0.78,1.39 0.78,3.1 0,4.49l-0.13 0.23c-0.09,-0.47 -0.26,-0.93 -0.5,-1.36l-3.77 -6.73c-0.24,-0.43 -0.4,-0.89 -0.5,-1.36l-0.13 0.23c-0.77,1.38 -0.78,3.09 -0.01,4.47l2.52 4.5c0.78,1.39 0.78,3.1 0,4.49l-0.13 0.23c-0.09,-0.47 -0.26,-0.93 -0.5,-1.36l-3.14 -5.61c-0.42,-0.75 -0.61,-1.6 -0.58,-2.44 -3.36,0.91 -5.68,2.83 -5.68,5.05 0,3.1 4.49,5.61 10.03,5.61 5.54,0 10.03,-2.51 10.03,-5.61 0,-2.23 -2.32,-4.15 -5.68,-5.05 -0.03,-0.71 -0.22,-1.41 -0.58,-2.05z"/>
 </g>
</svg>
